<svg width="1380" height="1761" viewBox="0 0 1380 1761" fill="none" xmlns="http://www.w3.org/2000/svg">
<path fill-rule="evenodd" clip-rule="evenodd" d="M1371.8 32.8434C1384.3 54.9519 1382.38 82.3906 1366.92 102.539L852.384 772.99H1228.05C1228.05 772.99 1228.07 772.99 1228.07 836.292L1228.05 772.99C1250.57 772.99 1271.42 784.953 1282.76 804.408C1294.1 823.862 1294.26 847.877 1283.16 867.475C1085.35 1216.95 783.159 1439.43 533.29 1574.1C408.062 1641.6 295.029 1687.55 213.102 1716.69C172.108 1731.28 138.814 1741.68 115.566 1748.49C103.939 1751.9 94.8166 1754.4 88.4915 1756.09C85.3288 1756.93 82.8646 1757.56 81.1355 1758L79.0973 1758.51L78.5001 1758.66L78.2395 1758.73C78.2395 1758.73 78.1886 1758.74 63.3029 1697.21L78.1886 1758.74C52.1049 1765.05 24.8767 1754.23 10.2417 1731.73C-4.39323 1709.24 -3.25418 1679.96 13.0842 1658.67L595.63 899.595H392.477C371.472 899.595 351.835 889.176 340.058 871.782C328.282 854.388 325.901 832.285 333.702 812.782C388.93 674.711 487.494 556.843 569.288 475.096C575.635 468.753 581.903 462.606 588.067 456.661H88.624C53.6628 456.661 25.3212 428.319 25.3212 393.358V203.265C25.3212 171.064 49.4949 143.994 81.491 140.365L1309.56 1.09902C1334.8 -1.76276 1359.3 10.7348 1371.8 32.8434ZM796.394 444.894L796.007 445.173C795.627 445.449 795.002 445.903 794.146 446.533C792.433 447.794 789.798 449.753 786.344 452.382C779.432 457.641 769.26 465.563 756.654 475.903C731.406 496.613 696.602 526.852 658.786 564.646C602.114 621.285 540.743 692.855 494.02 772.99H692.792L1175.74 143.692L151.927 259.795V330.055H759.633C787.157 330.055 811.527 347.84 819.921 374.053C828.309 400.25 818.819 428.864 796.444 444.858L796.394 444.894ZM755.222 899.595L239.585 1571.49C306.61 1544.92 386.85 1509.21 473.224 1462.66C686.66 1347.62 934.509 1168.07 1114.64 899.595H755.222Z" fill="url(#paint0_linear_704_52)"/>
<defs>
<linearGradient id="paint0_linear_704_52" x1="1329.36" y1="63.9987" x2="-273.521" y2="762.128" gradientUnits="userSpaceOnUse">
<stop stop-color="#C9FF00"/>
<stop offset="1" stop-color="#00CBFF"/>
</linearGradient>
</defs>
</svg>
